<?xml version="1.0" encoding="UTF-8"?>
<svg id="Layer_1" xmlns="http://www.w3.org/2000/svg" version="1.1" viewBox="0 0 73.07 75.67">
  <!-- Generator: Adobe Illustrator 30.5.1, SVG Export Plug-In . SVG Version: 2.1.4 Build 3)  -->
  <defs>
    <style>
      .st0 {
        fill: #fff;
      }
    </style>
  </defs>
  <path class="st0" d="M60.92,25.24c-.85.79-1.41,1.25-1.9,1.77-4.82,5.14-8.84,10.87-12.33,16.98-1,1.75-2.02,3.49-3.16,5.15-1.04,1.51-2.48,2.38-4.44,2.03-1.99-.35-3.04-1.76-3.38-3.51-.59-3.01-.99-6.06-1.28-9.11-.36-3.72-.53-7.46-.82-11.75-.45.99-.81,1.5-.92,2.07-1.39,7.25-2.73,14.51-4.09,21.77-.28,1.51-.43,3.06-.93,4.5-1.17,3.4-4.42,4.28-7.06,1.86-1.4-1.28-2.5-2.9-3.68-4.41-1.18-1.5-2.28-3.05-3.8-4.4.15.58.24,1.18.45,1.74,2.19,5.94,4.43,11.87,6.58,17.82.52,1.43.92,2.95,1.08,4.45.2,1.87-.81,3.14-2.36,3.41-1.44.25-2.69-.53-3.31-2.16-4.86-12.73-9.71-25.45-14.54-38.19-.37-.98-.65-2.01-.89-3.04-.36-1.53.01-2.9,1.32-3.83,1.3-.94,2.8-.87,4.09-.08,1.13.69,2.21,1.59,3.03,2.62,3.73,4.64,7.37,9.35,11.03,14.04.69.89,1.35,1.81,2.41,3.22.5-2.88.89-5.17,1.28-7.47,2.16-12.72,5.99-25,10.01-37.22.91-2.77,2.34-3.83,4.23-3.44,1.88.39,2.81,1.99,2.85,4.73.13,9.89.26,19.77.43,29.66.03,1.52.29,3.03.51,5.2.9-1.37,1.49-2.2,2.02-3.07,6.23-10.2,14.61-18.51,23.39-26.46,1.86-1.68,3.49-1.82,4.93-.72,1.4,1.06,1.86,2.96.93,4.97-7.9,16.96-10.24,35.29-13.33,53.44-.18,1.03-.35,2.09-.71,3.07-.49,1.29-1.56,1.93-2.94,1.91-1.33-.02-2.5-1.01-2.76-2.51-.2-1.12-.26-2.32-.09-3.43,1.04-6.54,2-13.09,3.3-19.58,1.38-6.86,3.12-13.65,4.69-20.47.08-.35.09-.73.18-1.56Z"/>
</svg>