<?xml version="1.0" encoding="UTF-8"?>
<svg id="Layer_1" data-name="Layer 1" xmlns="http://www.w3.org/2000/svg" viewBox="0 0 1024 1024">
  <defs>
    <style>
      .cls-1 {
        fill: #fff;
      }
    </style>
  </defs>
  <g id="TOP_L">
    <path class="cls-1" d="M977.87,98.22c.76,12.32-3.52,23.4-8.46,34.25-8.68,19.07-19.12,37.19-30.34,54.88-22.73,35.83-47.22,70.47-72.54,104.48-19.24,25.83-39.89,50.63-60.24,75.62-14.99,18.41-30.51,36.4-45.81,54.57-.73.87-1.5,1.7-2.26,2.54-48.6,53.8-99.37,105.5-152.15,155.2-12.34,11.62-25.68,22.18-38.58,33.2-2.47,2.11-4.95,2.29-7.34-.21-1.57-1.63-3.2-3.2-4.8-4.8-38.42-38.46-76.85-76.91-115.26-115.38-2.8-2.8-5.55-5.66-8.21-8.59-1.24-1.37-1.24-3.14-.15-4.58,3.4-4.51,6.77-9.06,10.43-13.36,8.08-9.47,16.15-18.95,24.53-28.14,32.82-35.97,66.48-71.14,101.49-104.99,33.77-32.65,68.53-64.21,104.2-94.8,30.5-26.16,61.7-51.42,93.66-75.76,37.83-28.81,76.95-55.75,118.4-79.15,13.77-7.77,27.97-14.72,43.42-18.97,6.74-1.85,13.35-2.58,20.11-2.04,12.23.98,21.08,7.62,27.33,17.81,3.44,5.62,2.06,12.11,2.57,18.23Z"/>
    <path class="cls-1" d="M351.72,798.34c-2.25,39.33-15.99,73.66-45.08,100.86-14.53,13.58-31.48,24.03-49.72,31.92-29.1,12.6-59.3,21.34-90.89,25.64-12.37,1.69-22.31,3.66-34.71,4.24-4.51.21-10.79.52-15.29.9-3.37.29-7.16-.23-10.65-.09-12.57-.72-25.96-1.36-38.89-2.54-6.14-.56-12.2-2.14-18.26-3.41-.87-.18-2.15-1.22-2.19-1.92-.06-.94.79-2.03,1.47-2.89.69-.87,1.55-1.71,2.5-2.26,10.41-5.98,18.98-14.38,27.6-22.41,19.73-18.39,34.29-40.31,41.47-66.73,4.59-16.89,7.61-34.08,10.19-51.33,1.93-12.9,5.37-25.29,9.4-37.64,3.94-12.07,10.88-22.16,18.72-31.91,17.41-21.63,40.16-34.5,66.92-40.22,10.97-2.35,22.39-2.69,33.61-3.8,6.18-.61,10.68,2.56,14.84,6.78,14.7,14.89,29.55,29.64,44.34,44.45,9.19,9.21,18.11,18.7,27.64,27.54,5.5,5.11,7.81,10.77,7.01,18.04-.25,2.23-.04,4.52-.04,6.78Z"/>
    <path class="cls-1" d="M380.42,752.64c-1.95-.75-3.73-1.05-5-2.01-2.24-1.71-4.21-3.77-6.21-5.77-23.19-23.26-46.37-46.54-69.54-69.83-1.6-1.6-3.26-3.17-4.65-4.95-1.47-1.87-1.97-4.03-.58-6.24,2.1-3.35,4.2-6.7,6.36-10.02,29.02-44.58,60.7-87.25,92.96-129.51.34-.45.7-.89,1.06-1.33,9.56-11.9,10.09-12.05,20.49-1.69,37.31,37.18,74.53,74.45,111.78,111.68,1.2,1.2,2.42,2.39,3.56,3.64,3.71,4.08,3.5,5.48-1.48,9.35-13.4,10.41-26.61,21.08-40.28,31.12-33.29,24.45-66.85,48.51-101.38,71.2-2.34,1.53-4.76,2.94-7.08,4.36Z"/>
  </g>
</svg>